<?xml version="1.0" encoding="utf-8"?>
<!-- Generator: Adobe Illustrator 20.0.0, SVG Export Plug-In . SVG Version: 6.00 Build 0)  -->
<svg version="1.1" id="Layer_1" xmlns="http://www.w3.org/2000/svg" xmlns:xlink="http://www.w3.org/1999/xlink" x="0px" y="0px"
	 viewBox="0 0 1080 900" style="enable-background:new 0 0 1080 900;" xml:space="preserve">
<style type="text/css">
	.st0{fill:none;}
	.st1{fill:#672C8E;}
	.st2{fill:#08B1CC;}
	.st3{fill:#EB3793;}
	.st4{fill:#7FC9A2;}
	.st5{fill:#FFD440;}
	.st6{fill:#692C90;}
	.st7{fill:url(#SVGID_1_);}
</style>
<pattern  width="200" height="200" patternUnits="userSpaceOnUse" id="New_Pattern_Swatch_4" viewBox="0 -200 200 200" style="overflow:visible;">
	<g>
		<rect y="-200" class="st0" width="200" height="200"/>
		<path class="st1" d="M200-48.6V0h-96.3c-4.3-8.6-13.3-14.6-23.5-14.6S61-8.6,56.7,0H20l-7.3-19.2L0-14.6v-34L5-54l10,4.1l8-8.5
			L21-60.2L14.3-53l-10-4.1L0-52.4v-64.7l9.9,2.3l5.6-23.9l-3.9-0.9l-4.7,20L0-121.2V-183l23.3-8.3L20-200h36.6
			c-1.8,3.5-2.8,7.5-2.8,11.8c0,14.5,11.8,26.3,26.3,26.3s26.3-11.8,26.3-26.3c0-4.2-1-8.2-2.8-11.8H200v78.8l-13.1-3.1l-0.9,3.9
			l14,3.3v64.7l-3,3.2l-10-4.1l-7.4,7.9l-9.1-3.7l-1,2.4l10.8,4.4l7.4-7.9l10,4.1L200-48.6z M149.4-155.8l32.5,7.7l7.7-32.5
			l-32.5-7.7L149.4-155.8z M166.8-113.1c-1.1-0.1-1.5,0.8-1.5,1.4c0,0.7,0.3,1.5,1.5,1.5c1-0.1,1.5-0.5,1.6-1.5
			C168.2-112.5,167.7-113,166.8-113.1z M159.6-120.3c-1.1-0.1-1.4,0.7-1.6,1.4c-0.2,0.7,0.7,1.5,1.5,1.5c1,0,1.5-0.5,1.6-1.4
			C161-119.7,160.5-120.1,159.6-120.3z M152.3-113c-1.1-0.1-1.5,0.8-1.5,1.5c0,0.7,0.3,1.6,1.2,1.5c1.3-0.1,1.9-0.5,1.8-1.5
			C153.8-112.6,153.3-113,152.3-113z M143.7-118.8c0,0.7,0.3,1.6,1.2,1.5c1.2-0.1,1.8-0.5,1.8-1.5c0-1-0.6-1.4-1.5-1.5
			C144-120.3,143.6-119.5,143.7-118.8z M136.4-126c0.2,0.7,0.4,1.6,1.5,1.4c0.9-0.1,1.5-0.5,1.5-1.5c0-1-0.6-1.4-1.6-1.4
			C137.1-127.4,136.2-126.7,136.4-126z M129.3-118.8c0,0.7,0.4,1.5,1.5,1.5c1-0.1,1.4-0.5,1.6-1.5c-0.1-0.9-0.6-1.4-1.6-1.5
			C129.6-120.3,129.3-119.5,129.3-118.8z M123.6-127.4c-1,0-1.4,0.6-1.4,1.5c0,0.8,0.2,1.5,1.3,1.4c0.9,0,1.5-0.5,1.6-1.4
			C125.1-126.9,124.5-127.4,123.6-127.4z M115.8-156.4c0,2.3,1.9,4.2,4.2,4.2s4.2-1.9,4.2-4.2c0-2.3-1.9-4.2-4.2-4.2
			S115.8-158.8,115.8-156.4z M114.8-133.1c0.2,0.7,0.5,1.5,1.6,1.4c0.9-0.1,1.5-0.6,1.5-1.5c0-1-0.6-1.4-1.6-1.4
			C115.5-134.6,114.6-133.8,114.8-133.1z M107.6-125.9c0.2,0.7,0.5,1.5,1.6,1.4c0.9-0.1,1.5-0.6,1.5-1.5c0-1-0.6-1.4-1.6-1.4
			C108.3-127.4,107.4-126.6,107.6-125.9z M100.5-133.2c0,0.7,0.3,1.5,1.5,1.5c1-0.1,1.5-0.5,1.6-1.4c-0.1-0.9-0.6-1.4-1.5-1.5
			C100.8-134.8,100.5-133.9,100.5-133.2z M93.3-140.4c0,0.7,0.3,1.6,1.5,1.5c0.9-0.1,1.5-0.4,1.5-1.4c0-1-0.6-1.4-1.5-1.5
			C93.6-142,93.3-141.1,93.3-140.4z M80.3-139c0.9,0,1.6-0.6,1.6-1.4c0-1-0.6-1.4-1.5-1.5c-1.1-0.1-1.4,0.7-1.6,1.4
			C78.6-139.7,79.5-139,80.3-139z M73.1-146.2c1,0,1.5-0.5,1.6-1.2c0-1.1-0.6-1.6-1.5-1.7c-1.1-0.1-1.4,0.7-1.5,1.4
			C71.4-146.9,72.3-146.2,73.1-146.2z M64.5-154.8c0.1,0.7,0.3,1.6,1.3,1.4c1.1,0,1.6-0.4,1.7-1.3c0.1-0.6-1.3-1.5-2.1-1.4
			C64.6-156,64.4-155.2,64.5-154.8z M57.4-147.7c0,1,0.2,1.6,1.3,1.6c1,0,1.7-0.6,1.6-1.5c-0.1-1-0.6-1.4-1.6-1.4
			C57.7-149.1,57.4-148.5,57.4-147.7z M50.1-154.8c0,0.7,0.4,1.5,1.5,1.5c1-0.1,1.4-0.5,1.6-1.5c-0.1-0.9-0.6-1.4-1.6-1.5
			C50.4-156.3,50.1-155.5,50.1-154.8z M42.8-162c0.2,0.7,0.4,1.5,1.6,1.4c1-0.1,1.4-0.6,1.5-1.5c-0.2-0.9-0.7-1.4-1.6-1.4
			C43.5-163.4,42.6-162.7,42.8-162z M117-35.9c0-3.5-2.8-6.4-6.4-6.4c-3.5,0-6.4,2.8-6.4,6.4c0,3.5,2.8,6.4,6.4,6.4
			C114.2-29.6,117-32.4,117-35.9z M141.1-8.5l-1-9.6l-10,0.9l1,9.6L141.1-8.5z M154.7-19.2l14.8-60.2l-16.6-5.4h0l23-13.3l-14.9-5.9
			c0.1-0.2,0.1-0.3,0.1-0.6c0-1-0.6-1.4-1.8-1.4c-0.7-0.1-1,0.4-1.1,0.9l-18.9-7.4c-0.3-0.4-0.6-0.6-1.3-0.7c-0.1,0-0.3,0-0.4,0
			l-48.9-19.2c0.3-0.2,0.4-0.6,0.4-1c0-1-0.6-1.4-1.6-1.4c-0.8,0-1.6,0.7-1.5,1.4l-18.5-7.3c-0.1-0.8-0.6-1.2-1.8-1.3
			c-0.4-0.1-0.6,0.1-0.8,0.3L27-156.4L37.3-18.1l83.1-48L154.7-19.2z"/>
		<path class="st1" d="M68.9,0h22.6c-2.9-2.8-6.9-4.6-11.3-4.6S71.8-2.8,68.9,0z"/>
		<path class="st1" d="M63.9-188.2c0,9,7.3,16.3,16.3,16.3c9,0,16.3-7.3,16.3-16.3c0-4.6-1.9-8.8-5-11.8H68.9
			C65.8-197,63.9-192.9,63.9-188.2z"/>
		<polygon class="st2" points="187,-53.3 179.6,-45.4 170.5,-49.1 169.5,-46.7 180.3,-42.3 187.7,-50.2 197.6,-46.1 200,-48.6 
			200,-52.4 197,-49.2 		"/>
		<polygon class="st2" points="15,-49.9 22.9,-58.4 21,-60.2 14.3,-53 4.3,-57.1 0,-52.4 0,-48.6 5,-54 		"/>
		<path class="st2" d="M120.5-66L120.5-66l-83.1,48L27-156.4l37.9,14.9c-0.2,0.3-0.3,0.8-0.4,1.1c-0.2,0.7,0.7,1.5,1.5,1.5
			c1,0,1.5-0.4,1.6-1.4c0-0.1,0-0.1,0-0.2l18.5,7.3c0,0,0,0.1,0,0.1c0.2,0.7,0.4,1.6,1.2,1.5c0.7-0.1,1.2-0.2,1.5-0.5l48.9,19.2
			c-0.8,0.1-1.1,0.8-1.1,1.4c0,0.7,0.3,1.5,1.5,1.5c1-0.1,1.4-0.5,1.6-1.4c-0.1-0.3-0.2-0.6-0.3-0.8l18.9,7.4
			c-0.1,0.2-0.1,0.4-0.1,0.6c0,0.7,0.4,1.6,1.5,1.4c0.7-0.1,1.2-0.4,1.4-0.9l14.9,5.9l-23,13.3l-60.2-19.4l9.3,12.7
			c-1.1-0.1-1.5,0.8-1.5,1.5c0,0.7,0.3,1.6,1.2,1.5c1,0,1.5-0.3,1.7-0.9l4.4,6c-0.1,0.2-0.1,0.4-0.1,0.7c0,0.7,0.4,1.5,1.5,1.4
			c0.1,0,0.1,0,0.1,0L120.5-66z M96.3-111.6c0-1-0.6-1.4-1.8-1.5c-0.8-0.2-1.2,0.8-1.2,1.5c0,0.7,0.3,1.6,1.5,1.5
			C95.7-110.2,96.3-110.6,96.3-111.6z M103.5-104.4c0-1-0.6-1.4-1.6-1.4c-1.1-0.1-1.5,0.8-1.5,1.5c0,0.7,0.3,1.6,1.2,1.5
			C102.9-103,103.5-103.4,103.5-104.4z M145.1-103c1,0,1.5-0.5,1.6-1.2c0-1.1-0.6-1.6-1.5-1.7c-1.1-0.1-1.4,0.7-1.6,1.4
			C143.4-103.7,144.3-103,145.1-103z M136.5-97.2c0,0.7,0.4,1.5,1.5,1.5c1-0.1,1.4-0.5,1.6-1.5c-0.1-0.9-0.6-1.4-1.6-1.5
			C136.8-98.7,136.5-97.9,136.5-97.2z M129.3-104.4c0,0.7,0.4,1.5,1.5,1.5c1-0.1,1.4-0.5,1.6-1.4c-0.1-0.9-0.6-1.4-1.6-1.5
			C129.6-105.9,129.3-105.1,129.3-104.4z M122.1-111.6c0,0.7,0.4,1.5,1.5,1.5c1-0.1,1.4-0.5,1.6-1.5c-0.1-0.9-0.6-1.4-1.6-1.5
			C122.4-113.1,122.1-112.3,122.1-111.6z M123.5-95.8c1,0,1.5-0.4,1.6-1.4c0-1-0.6-1.4-1.8-1.5c-0.8-0.2-1,0.8-1.2,1.5
			C121.8-96.5,122.7-95.8,123.5-95.8z M114.9-118.8c0,0.7,0.3,1.6,1.5,1.4c0.9-0.1,1.5-0.5,1.5-1.4c0-1-0.6-1.4-1.5-1.5
			C115.2-120.3,114.8-119.5,114.9-118.8z M114.9-104.4c0,0.7,0.3,1.5,1.5,1.5c1-0.1,1.5-0.5,1.6-1.4c-0.1-0.9-0.6-1.4-1.5-1.5
			C115.2-106,114.9-105.1,114.9-104.4z M107.7-111.6c0,0.7,0.3,1.6,1.5,1.5c0.9-0.1,1.5-0.5,1.5-1.4c0-1-0.6-1.4-1.8-1.5
			C108-113.3,107.7-112.3,107.7-111.6z M101.9-117.3c1,0,1.5-0.5,1.6-1.2c0-1.1-0.6-1.6-1.5-1.7c-1.1-0.1-1.4,0.7-1.6,1.4
			C100.2-118.1,101.1-117.4,101.9-117.3z M93.2-126c0.2,0.7,0.4,1.5,1.6,1.4c1-0.1,1.4-0.6,1.5-1.5c-0.2-0.9-0.7-1.4-1.6-1.4
			C93.9-127.4,93-126.7,93.2-126z M86.1-118.9c0,0.6,0.2,1.5,1.3,1.5c1,0,1.7-0.5,1.8-1.4c0.1-0.9-0.6-1.4-1.5-1.6
			C86.5-120.4,86.1-119.6,86.1-118.9z M71.6-133.2c0.2,0.7,0.4,1.6,1.5,1.4c1-0.1,1.4-0.6,1.5-1.3c0-1-0.7-1.6-1.6-1.6
			C72.3-134.6,71.4-133.9,71.6-133.2z M65.9-110.2c1,0,1.5-0.5,1.6-1.4c-0.1-0.9-0.6-1.4-1.5-1.5c-1.1-0.1-1.4,0.7-1.6,1.4
			C64.2-110.9,65.1-110.2,65.9-110.2z M67.5-97.2c0-1-0.6-1.4-1.6-1.4c-1.1-0.1-1.5,0.8-1.5,1.5c0,0.7,0.3,1.6,1.2,1.5
			C66.9-95.8,67.5-96.2,67.5-97.2z M65.9-84.2c-1.1-0.1-1.5,0.8-1.5,1.5c0,0.7,0.3,1.6,1.2,1.5c1.2-0.1,1.8-0.5,1.8-1.5
			C67.5-83.8,66.9-84.2,65.9-84.2z M57.4-75.5c0,0.8,0.3,1.4,1.3,1.3c1,0,1.5-0.4,1.6-1.4c0.1-0.9-0.6-1.5-1.6-1.5
			C57.6-77.1,57.4-76.4,57.4-75.5z M58.7-88.5c1,0,1.7-0.6,1.6-1.5c-0.1-1-0.6-1.4-1.6-1.4c-1,0-1.3,0.6-1.3,1.3
			C57.4-89.2,57.6-88.5,58.7-88.5z M60.3-104.3c0.1-0.9-0.6-1.5-1.6-1.5c-1,0-1.3,0.6-1.3,1.6c0,0.8,0.3,1.3,1.3,1.3
			C59.7-103,60.2-103.4,60.3-104.3z M57.4-133.2c0,0.9,0.3,1.4,1.3,1.4c1,0,1.5-0.4,1.6-1.4c0.1-0.9-0.6-1.5-1.6-1.5
			C57.6-134.7,57.4-134.1,57.4-133.2z M57.4-118.9c0,1.2,0.3,1.6,1.3,1.6c1,0,1.7-0.6,1.6-1.5c-0.1-1-0.6-1.4-1.6-1.4
			C57.7-120.3,57.4-119.7,57.4-118.9z M50-111.6c0.2,0.7,0.4,1.7,1.2,1.5c1.3-0.1,1.9-0.6,1.8-1.5c0-1-0.6-1.4-1.6-1.4
			C50.7-113,49.8-112.3,50-111.6z M50-126c0.2,0.7,0.4,1.6,1.5,1.4c0.9-0.1,1.5-0.5,1.5-1.5c0-1-0.6-1.4-1.6-1.4
			C50.7-127.4,49.8-126.7,50-126z M51.2-98.7c-0.8-0.2-1,0.8-1.2,1.5c-0.2,0.7,0.7,1.4,1.5,1.5c1,0,1.5-0.5,1.6-1.4
			C53.1-98.1,52.5-98.6,51.2-98.7z M45.9-133.2c0-1-0.6-1.4-1.6-1.4c-0.8,0-1.7,0.8-1.5,1.5c0.2,0.7,0.4,1.6,1.5,1.4
			C45.3-131.8,45.9-132.3,45.9-133.2z M45.9-147.5c-0.1-0.9-0.6-1.4-1.5-1.5c-1.1-0.1-1.4,0.7-1.5,1.4c-0.2,0.7,0.7,1.4,1.5,1.5
			C45.3-146.1,45.8-146.6,45.9-147.5z M53.1-68.3c0-1-0.6-1.4-1.5-1.5c-0.9,0-1.4,0.2-1.3,1.2c0,0.8,0,1.7,1.2,1.7
			C52.5-67,53-67.4,53.1-68.3z M53.1-82.7c-0.1-1-0.6-1.4-1.5-1.5c-1.1-0.1-1.4,0.7-1.6,1.4c-0.2,0.7,0.7,1.5,1.5,1.5
			C52.5-81.3,52.9-81.8,53.1-82.7z M53.1-140.4c-0.1-0.9-0.6-1.4-1.6-1.5c-1.1-0.1-1.5,0.8-1.5,1.5c0,0.7,0.4,1.5,1.5,1.5
			C52.5-139,53-139.5,53.1-140.4z M60.3-46.8c0-1-0.5-1.4-1.5-1.5c-1-0.1-1.4,0.4-1.4,1.2c0,1,0.2,1.7,1.3,1.7
			C59.7-45.4,60.2-45.8,60.3-46.8z M60.3-61.2c0-1-0.6-1.4-1.5-1.4c-1,0-1.3,0.5-1.3,1.1c0,1.1,0.2,1.8,1.2,1.8
			C59.6-59.7,60.3-60.3,60.3-61.2z M64.4-68.4c0.2,0.7,0.4,1.5,1.6,1.4c1-0.1,1.4-0.6,1.5-1.5c-0.2-0.9-0.7-1.4-1.6-1.4
			C65.1-69.8,64.2-69.1,64.4-68.4z M67.5-54c-0.2-0.9-0.6-1.4-1.6-1.4c-1.1-0.1-1.5,0.8-1.5,1.5c0,0.7,0.4,1.5,1.5,1.4
			C66.9-52.6,67.4-53.1,67.5-54z M67.5-126c-0.1-0.9-0.6-1.4-1.6-1.5c-1.1-0.1-1.5,0.8-1.5,1.5c0,0.7,0.4,1.5,1.5,1.5
			C66.9-124.6,67.4-125.1,67.5-126z M74.7-61.2c0-1-0.6-1.4-1.6-1.4c-0.8,0-1.7,0.8-1.5,1.5c0.2,0.7,0.4,1.5,1.6,1.4
			C74.1-59.8,74.7-60.3,74.7-61.2z M74.7-75.6c-0.1-1-0.6-1.4-1.6-1.4c-0.8,0-1.7,0.8-1.5,1.5c0.2,0.7,0.4,1.6,1.4,1.4
			C74.1-74.2,74.7-74.8,74.7-75.6z M73.1-88.5c1-0.1,1.5-0.5,1.5-1.5c0-1-0.6-1.4-1.8-1.5c-0.9-0.2-1.2,0.8-1.2,1.5
			C71.7-89.3,72-88.4,73.1-88.5z M74.7-104.5c-0.2-0.9-0.7-1.4-1.6-1.4c-0.8,0-1.7,0.8-1.5,1.5c0.2,0.7,0.4,1.5,1.6,1.4
			C74.1-103,74.6-103.5,74.7-104.5z M74.7-118.8c-0.2-0.9-0.6-1.4-1.6-1.4c-1.1-0.1-1.5,0.8-1.5,1.5c0,0.7,0.4,1.5,1.5,1.4
			C74.1-117.4,74.6-117.9,74.7-118.8z M81.9-68.4c0-1-0.6-1.4-1.9-1.4c-0.9-0.2-1.1,0.8-1.1,1.5c0,0.7,0.4,1.6,1.5,1.4
			C81.3-67,81.9-67.5,81.9-68.4z M81.9-82.7c0.1-0.9-0.6-1.4-1.5-1.6c-1.1-0.1-1.5,0.6-1.6,1.4c0,0.6,0.2,1.5,1.3,1.5
			C81.1-81.3,81.8-81.8,81.9-82.7z M81.9-97.3c-0.2-0.9-0.7-1.4-1.6-1.4c-0.8,0-1.7,0.8-1.5,1.5c0.2,0.7,0.4,1.5,1.6,1.4
			C81.3-95.8,81.8-96.3,81.9-97.3z M80.4-110.1c0.9-0.1,1.5-0.5,1.5-1.4c0-1-0.6-1.4-1.5-1.5c-1.1-0.1-1.5,0.8-1.5,1.5
			C78.9-110.9,79.2-109.9,80.4-110.1z M81.9-126c-0.1-0.9-0.6-1.4-1.6-1.5c-1.1-0.1-1.5,0.8-1.5,1.4c0,0.7,0.3,1.5,1.5,1.5
			C81.3-124.6,81.8-125,81.9-126z M89.1-75.6c0-1-0.6-1.4-1.6-1.4c-0.8,0-1.7,0.8-1.5,1.5c0.2,0.7,0.4,1.6,1.5,1.4
			C88.5-74.2,89.1-74.7,89.1-75.6z M87.5-88.5c0.9,0,1.5-0.4,1.6-1.4c0-1-0.5-1.4-1.5-1.5c-1.1-0.1-1.4,0.7-1.6,1.4
			C85.8-89.3,86.7-88.6,87.5-88.5z M89.1-104.3c0-1-0.7-1.6-1.6-1.6c-0.8,0-1.7,0.8-1.5,1.5c0.2,0.7,0.4,1.5,1.6,1.4
			C88.5-103,89-103.5,89.1-104.3z M93.3-97.2c0,0.7,0.4,1.6,1.5,1.4c1-0.1,1.4-0.6,1.5-1.5c-0.1-0.9-0.6-1.4-1.6-1.4
			C93.6-98.7,93.2-97.9,93.3-97.2z M96.3-68.4c0-1-0.6-1.4-1.9-1.5c-0.9-0.2-1.1,0.8-1.1,1.5c0,0.7,0.4,1.6,1.5,1.4
			C95.7-67,96.3-67.4,96.3-68.4z M96.3-82.8c-0.1-0.9-0.6-1.4-1.6-1.5c-1.1-0.1-1.5,0.8-1.5,1.4c0,0.7,0.4,1.5,1.5,1.5
			C95.7-81.4,96.2-81.9,96.3-82.8z M103.5-75.5c0-1-0.5-1.4-1.5-1.5c-1.1-0.1-1.4,0.7-1.6,1.4c-0.2,0.7,0.7,1.5,1.5,1.5
			C102.8-74.1,103.4-74.6,103.5-75.5z"/>
		
			<rect x="152.8" y="-184.8" transform="matrix(0.9732 -0.2301 0.2301 0.9732 43.2466 34.4923)" class="st3" width="33.3" height="33.3"/>
		<polygon class="st2" points="130,-17.2 131,-7.6 141.1,-8.5 140,-18.1 		"/>
		<polygon class="st3" points="20,-200 0,-200 0,-183 23.3,-191.3 		"/>
		<polygon class="st3" points="0,-14.6 0,0 20,0 12.7,-19.2 		"/>
		<circle class="st3" cx="110.7" cy="-35.9" r="6.4"/>
		<polygon class="st4" points="15.5,-138.7 11.6,-139.6 6.9,-119.6 0,-121.2 0,-117.1 9.9,-114.8 		"/>
		<polygon class="st4" points="186,-120.4 200,-117.1 200,-121.2 186.9,-124.3 		"/>
		<path class="st4" d="M80.2-161.9c14.5,0,26.3-11.8,26.3-26.3c0-4.2-1-8.2-2.8-11.8H91.5c3.1,3,5,7.1,5,11.8
			c0,9-7.3,16.3-16.3,16.3c-9,0-16.3-7.3-16.3-16.3c0-4.6,1.9-8.8,5-11.8H56.7c-1.8,3.5-2.8,7.5-2.8,11.8
			C53.9-173.7,65.7-161.9,80.2-161.9z"/>
		<path class="st4" d="M80.2-14.6C69.9-14.6,61-8.6,56.7,0h12.3c2.9-2.8,6.9-4.6,11.3-4.6S88.6-2.8,91.5,0h12.3
			C99.4-8.6,90.5-14.6,80.2-14.6z"/>
		<circle class="st3" cx="120" cy="-156.4" r="4.2"/>
		<polygon class="st4" points="152.9,-84.7 120.5,-66 120.5,-66 154.7,-19.2 169.5,-79.4 		"/>
		<path class="st3" d="M92.7-104.1l60.2,19.4h0L120.5-66l-11.2-15.3c0.9-0.1,1.3-0.6,1.4-1.4c-0.2-0.9-0.6-1.4-1.6-1.4
			c-0.8,0-1.2,0.3-1.3,0.8l-4.4-6c0.1-0.2,0.1-0.3,0.1-0.5c0-1-0.6-1.4-1.5-1.5c0,0,0,0,0,0L92.7-104.1z M129.2-90
			c0.2,0.7,0.4,1.6,1.6,1.4c1-0.1,1.5-0.5,1.5-1.5c0-1-0.6-1.4-1.2-1.4C129.9-91.4,129-90.7,129.2-90z M122-82.8
			c0.1,0.6,0.2,1.5,1.2,1.5c0.7,0,1.8-0.8,1.8-1.4c0-0.8-0.6-1.4-1.4-1.5C122.8-84.3,121.9-83.7,122-82.8z M116.3-88.6
			c0.9,0,1.6-0.5,1.6-1.4c0-1-0.5-1.4-1.5-1.5c-1.1-0.1-1.4,0.7-1.6,1.4C114.6-89.3,115.5-88.6,116.3-88.6z M109.1-95.7
			c1,0,1.5-0.5,1.6-1.4c-0.1-0.9-0.6-1.4-1.5-1.5c-1.1-0.1-1.4,0.7-1.5,1.4C107.4-96.5,108.3-95.8,109.1-95.7z"/>
		<path class="st5" d="M123.5-95.8c1,0,1.5-0.4,1.6-1.4c0-1-0.6-1.4-1.8-1.5c-0.8-0.2-1,0.8-1.2,1.5
			C121.8-96.5,122.7-95.8,123.5-95.8z"/>
		<path class="st5" d="M109.1-95.7c1,0,1.5-0.5,1.6-1.4c-0.1-0.9-0.6-1.4-1.5-1.5c-1.1-0.1-1.4,0.7-1.5,1.4
			C107.4-96.5,108.3-95.8,109.1-95.7z"/>
		<path class="st5" d="M94.8-95.7c1-0.1,1.4-0.6,1.5-1.5c-0.1-0.9-0.6-1.4-1.6-1.4c-1.1-0.1-1.5,0.8-1.5,1.5
			C93.3-96.5,93.6-95.6,94.8-95.7z"/>
		<path class="st5" d="M80.3-98.6c-0.8,0-1.7,0.8-1.5,1.5c0.2,0.7,0.4,1.5,1.6,1.4c1-0.1,1.4-0.6,1.5-1.5
			C81.7-98.2,81.3-98.7,80.3-98.6z"/>
		<path class="st5" d="M65.9-98.6c-1.1-0.1-1.5,0.8-1.5,1.5c0,0.7,0.3,1.6,1.2,1.5c1.3-0.1,1.9-0.5,1.8-1.5
			C67.4-98.2,66.9-98.6,65.9-98.6z"/>
		<path class="st5" d="M51.2-98.7c-0.8-0.2-1,0.8-1.2,1.5c-0.2,0.7,0.7,1.4,1.5,1.5c1,0,1.5-0.5,1.6-1.4
			C53.1-98.1,52.5-98.6,51.2-98.7z"/>
		<path class="st5" d="M159.6-102.9c0.7-0.1,1.2-0.4,1.4-0.9c0.1-0.2,0.1-0.3,0.1-0.6c0-1-0.6-1.4-1.8-1.4c-0.7-0.1-1,0.4-1.1,0.9
			c-0.1,0.2-0.1,0.4-0.1,0.6C158.1-103.7,158.4-102.8,159.6-102.9z"/>
		<path class="st5" d="M145.1-103c1,0,1.5-0.5,1.6-1.2c0-1.1-0.6-1.6-1.5-1.7c-1.1-0.1-1.4,0.7-1.6,1.4
			C143.4-103.7,144.3-103,145.1-103z"/>
		<path class="st5" d="M130.7-102.9c1-0.1,1.4-0.5,1.6-1.4c-0.1-0.9-0.6-1.4-1.6-1.5c-1.1-0.1-1.5,0.8-1.5,1.5
			C129.3-103.7,129.6-102.9,130.7-102.9z"/>
		<path class="st5" d="M116.3-102.9c1-0.1,1.5-0.5,1.6-1.4c-0.1-0.9-0.6-1.4-1.5-1.5c-1.1-0.1-1.5,0.8-1.5,1.4
			C114.8-103.7,115.2-102.9,116.3-102.9z"/>
		<path class="st5" d="M101.9-105.8c-1.1-0.1-1.5,0.8-1.5,1.5c0,0.7,0.3,1.6,1.2,1.5c1.3-0.1,1.9-0.5,1.9-1.5
			C103.4-105.4,102.9-105.8,101.9-105.8z"/>
		<path class="st5" d="M87.5-105.8c-0.8,0-1.7,0.8-1.5,1.5c0.2,0.7,0.4,1.5,1.6,1.4c1-0.1,1.4-0.6,1.5-1.3
			C89.1-105.3,88.4-105.8,87.5-105.8z"/>
		<path class="st5" d="M73.1-105.8c-0.8,0-1.7,0.8-1.5,1.5c0.2,0.7,0.4,1.5,1.6,1.4c1-0.1,1.4-0.6,1.5-1.5
			C74.6-105.4,74.1-105.9,73.1-105.8z"/>
		<path class="st5" d="M165.3-111.6c0,0.7,0.3,1.5,1.5,1.5c1-0.1,1.5-0.5,1.6-1.5c-0.2-0.8-0.6-1.3-1.6-1.4
			C165.6-113.2,165.3-112.3,165.3-111.6z"/>
		<path class="st5" d="M150.9-111.6c0,0.7,0.3,1.6,1.2,1.5c1.3-0.1,1.9-0.5,1.8-1.5c0-1-0.6-1.4-1.6-1.4
			C151.2-113.1,150.8-112.3,150.9-111.6z"/>
		<path class="st5" d="M136.5-111.6c0,0.7,0.3,1.5,1.5,1.5c1-0.1,1.4-0.5,1.6-1.4c-0.1-0.3-0.2-0.6-0.3-0.8
			c-0.3-0.4-0.6-0.6-1.3-0.7c-0.1,0-0.3,0-0.4,0C136.7-112.9,136.5-112.2,136.5-111.6z"/>
		<path class="st5" d="M123.5-110.1c1-0.1,1.4-0.5,1.6-1.5c-0.1-0.9-0.6-1.4-1.6-1.5c-1.1-0.1-1.5,0.8-1.5,1.5
			C122.1-110.9,122.4-110,123.5-110.1z"/>
		<path class="st5" d="M109.1-110.1c0.9-0.1,1.5-0.5,1.5-1.4c0-1-0.6-1.4-1.8-1.5c-0.8-0.2-1.2,0.8-1.2,1.5
			C107.6-110.9,108-110,109.1-110.1z"/>
		<path class="st5" d="M65.9-55.4c-1.1-0.1-1.5,0.8-1.5,1.5c0,0.7,0.4,1.5,1.5,1.4c1-0.1,1.4-0.6,1.6-1.5
			C67.4-54.9,66.9-55.4,65.9-55.4z"/>
		<path class="st5" d="M73.1-62.6c-0.8,0-1.7,0.8-1.5,1.5c0.2,0.7,0.4,1.5,1.6,1.4c1-0.1,1.5-0.6,1.5-1.5
			C74.6-62.2,74-62.6,73.1-62.6z"/>
		<path class="st5" d="M94.4-69.9c-0.9-0.2-1.1,0.8-1.1,1.5c0,0.7,0.4,1.6,1.5,1.4c1-0.1,1.5-0.5,1.5-1.5
			C96.3-69.4,95.7-69.8,94.4-69.9z"/>
		<path class="st5" d="M80-69.9c-0.9-0.2-1.1,0.8-1.1,1.5c0,0.7,0.4,1.6,1.5,1.4c1-0.1,1.5-0.5,1.5-1.5C81.9-69.4,81.2-69.8,80-69.9
			z"/>
		<path class="st5" d="M66-66.9c1-0.1,1.4-0.6,1.5-1.5c-0.2-0.9-0.7-1.4-1.6-1.4c-0.8,0-1.7,0.8-1.5,1.5
			C64.6-67.6,64.9-66.8,66-66.9z"/>
		<path class="st5" d="M102-77c-1.1-0.1-1.4,0.7-1.6,1.4c-0.2,0.7,0.7,1.5,1.5,1.5c0.9,0,1.5-0.4,1.6-1.4
			C103.5-76.5,102.9-76.9,102-77z"/>
		<path class="st5" d="M87.5-77c-0.8,0-1.7,0.8-1.5,1.5c0.2,0.7,0.4,1.6,1.5,1.4c0.9-0.1,1.5-0.5,1.5-1.5C89.1-76.6,88.4-77,87.5-77
			z"/>
		<path class="st5" d="M73.1-77c-0.8,0-1.7,0.8-1.5,1.5c0.2,0.7,0.4,1.6,1.4,1.4c1,0,1.7-0.6,1.6-1.5C74.6-76.6,74-77.1,73.1-77z"/>
		<path class="st5" d="M110.7-82.8c-0.2-0.9-0.6-1.4-1.6-1.4c-0.8,0-1.2,0.3-1.3,0.8c-0.1,0.2-0.1,0.4-0.1,0.7
			c0,0.7,0.4,1.5,1.5,1.4c0.1,0,0.1,0,0.1,0C110.2-81.5,110.6-81.9,110.7-82.8z"/>
		<path class="st5" d="M94.7-84.2c-1.1-0.1-1.5,0.8-1.5,1.4c0,0.7,0.4,1.5,1.5,1.5c1-0.1,1.4-0.5,1.6-1.4
			C96.2-83.7,95.7-84.2,94.7-84.2z"/>
		<path class="st5" d="M80.4-84.2c-1.1-0.1-1.5,0.6-1.6,1.4c0,0.6,0.2,1.5,1.3,1.5c1,0,1.7-0.5,1.8-1.4
			C81.9-83.6,81.3-84.1,80.4-84.2z"/>
		<path class="st5" d="M64.5-82.8c0,0.7,0.3,1.6,1.2,1.5c1.2-0.1,1.8-0.5,1.8-1.5c0-1-0.6-1.4-1.5-1.5
			C64.8-84.3,64.4-83.5,64.5-82.8z"/>
		<path class="st5" d="M51.6-84.2c-1.1-0.1-1.4,0.7-1.6,1.4c-0.2,0.7,0.7,1.5,1.5,1.5c1,0,1.5-0.5,1.6-1.4
			C53-83.7,52.6-84.1,51.6-84.2z"/>
		<path class="st5" d="M130.8-88.5c1-0.1,1.5-0.5,1.5-1.5c0-1-0.6-1.4-1.2-1.4c-1.2,0-2.1,0.8-1.9,1.5
			C129.4-89.2,129.6-88.4,130.8-88.5z"/>
		<path class="st5" d="M116.3-88.6c0.9,0,1.6-0.5,1.6-1.4c0-1-0.5-1.4-1.5-1.5c-1.1-0.1-1.4,0.7-1.6,1.4
			C114.6-89.3,115.5-88.6,116.3-88.6z"/>
		<path class="st5" d="M101.9-91.4C101.9-91.4,101.9-91.4,101.9-91.4c-1.1-0.1-1.5,0.8-1.5,1.5c0,0.7,0.3,1.6,1.2,1.5
			c1,0,1.5-0.3,1.7-0.9c0.1-0.2,0.1-0.3,0.1-0.5C103.5-91,102.9-91.4,101.9-91.4z"/>
		<path class="st5" d="M87.5-88.5c0.9,0,1.5-0.4,1.6-1.4c0-1-0.5-1.4-1.5-1.5c-1.1-0.1-1.4,0.7-1.6,1.4
			C85.8-89.3,86.7-88.6,87.5-88.5z"/>
		<path class="st5" d="M73.1-88.5c1-0.1,1.5-0.5,1.5-1.5c0-1-0.6-1.4-1.8-1.5c-0.9-0.2-1.2,0.8-1.2,1.5C71.7-89.3,72-88.4,73.1-88.5
			z"/>
		<path class="st5" d="M137.9-95.7c1-0.1,1.4-0.5,1.6-1.5c-0.1-0.9-0.6-1.4-1.6-1.5c-1.1-0.1-1.5,0.8-1.5,1.5
			C136.5-96.5,136.8-95.7,137.9-95.7z"/>
		<path class="st5" d="M94.8-124.5c1-0.1,1.4-0.6,1.5-1.5c-0.2-0.9-0.7-1.4-1.6-1.4c-0.8,0-1.7,0.8-1.5,1.5
			C93.4-125.2,93.7-124.4,94.8-124.5z"/>
		<path class="st5" d="M80.4-127.5c-1.1-0.1-1.5,0.8-1.5,1.4c0,0.7,0.3,1.5,1.5,1.5c1-0.1,1.5-0.5,1.6-1.4
			C81.8-126.9,81.3-127.4,80.4-127.5z"/>
		<path class="st5" d="M65.9-127.4c-1.1-0.1-1.5,0.8-1.5,1.5c0,0.7,0.4,1.5,1.5,1.5c1-0.1,1.4-0.5,1.6-1.5
			C67.4-126.9,66.9-127.4,65.9-127.4z"/>
		<path class="st5" d="M51.6-124.5c0.9-0.1,1.5-0.5,1.5-1.5c0-1-0.6-1.4-1.6-1.4c-0.8,0-1.7,0.8-1.5,1.5
			C50.2-125.3,50.4-124.4,51.6-124.5z"/>
		<path class="st5" d="M116.4-131.7c0.9-0.1,1.5-0.6,1.5-1.5c0-1-0.6-1.4-1.6-1.4c-0.8,0-1.7,0.8-1.5,1.5
			C115-132.4,115.3-131.6,116.4-131.7z"/>
		<path class="st5" d="M101.9-131.7c1-0.1,1.5-0.5,1.6-1.4c-0.1-0.9-0.6-1.4-1.5-1.5c-1.1-0.1-1.5,0.8-1.5,1.4
			C100.4-132.5,100.8-131.7,101.9-131.7z"/>
		<path class="st5" d="M87.2-131.7c0.7-0.1,1.2-0.2,1.5-0.5c0.3-0.2,0.4-0.6,0.4-1c0-1-0.6-1.4-1.6-1.4c-0.8,0-1.6,0.7-1.5,1.4
			c0,0,0,0.1,0,0.1C86.2-132.4,86.4-131.5,87.2-131.7z"/>
		<path class="st5" d="M73.2-131.7c1-0.1,1.4-0.6,1.5-1.3c0-1-0.7-1.6-1.6-1.6c-0.8,0-1.7,0.7-1.5,1.5
			C71.8-132.5,72-131.6,73.2-131.7z"/>
		<path class="st5" d="M44.3-134.6c-0.8,0-1.7,0.8-1.5,1.5c0.2,0.7,0.4,1.6,1.5,1.4c0.9-0.1,1.5-0.5,1.5-1.5
			C45.9-134.2,45.2-134.6,44.3-134.6z"/>
		<path class="st5" d="M94.7-138.9c0.9-0.1,1.5-0.4,1.5-1.4c0-1-0.6-1.4-1.5-1.5c-1.1-0.1-1.5,0.8-1.5,1.4
			C93.3-139.7,93.6-138.8,94.7-138.9z"/>
		<path class="st5" d="M80.3-139c0.9,0,1.6-0.6,1.6-1.4c0-1-0.6-1.4-1.5-1.5c-1.1-0.1-1.4,0.7-1.6,1.4C78.6-139.7,79.5-139,80.3-139
			z"/>
		<path class="st5" d="M65.9-139c1,0,1.5-0.4,1.6-1.4c0-0.1,0-0.1,0-0.2c-0.1-0.8-0.6-1.2-1.8-1.3c-0.4-0.1-0.6,0.1-0.8,0.3
			c-0.2,0.3-0.3,0.8-0.4,1.1C64.2-139.7,65.1-139,65.9-139z"/>
		<path class="st5" d="M51.5-141.8c-1.1-0.1-1.5,0.8-1.5,1.5c0,0.7,0.4,1.5,1.5,1.5c1-0.1,1.4-0.5,1.6-1.5
			C53-141.3,52.5-141.8,51.5-141.8z"/>
		<path class="st5" d="M73.1-146.2c1,0,1.5-0.5,1.6-1.2c0-1.1-0.6-1.6-1.5-1.7c-1.1-0.1-1.4,0.7-1.5,1.4
			C71.4-146.9,72.3-146.2,73.1-146.2z"/>
		<path class="st5" d="M44.4-149.1c-1.1-0.1-1.4,0.7-1.5,1.4c-0.2,0.7,0.7,1.4,1.5,1.5c1,0,1.5-0.5,1.6-1.4
			C45.8-148.5,45.3-148.9,44.4-149.1z"/>
		<path class="st5" d="M51.5-153.3c1-0.1,1.4-0.5,1.6-1.5c-0.1-0.9-0.6-1.4-1.6-1.5c-1.1-0.1-1.5,0.8-1.5,1.5
			C50.1-154.1,50.4-153.2,51.5-153.3z"/>
		<path class="st5" d="M44.4-160.5c1-0.1,1.4-0.6,1.5-1.5c-0.2-0.9-0.7-1.4-1.6-1.4c-0.8,0-1.7,0.8-1.5,1.5
			C43-161.2,43.3-160.4,44.4-160.5z"/>
		<path class="st5" d="M94.4-113.1c-0.8-0.2-1.2,0.8-1.2,1.5c0,0.7,0.3,1.6,1.5,1.5c0.9-0.1,1.5-0.5,1.5-1.4
			C96.3-112.6,95.7-113,94.4-113.1z"/>
		<path class="st5" d="M80.4-110.1c0.9-0.1,1.5-0.5,1.5-1.4c0-1-0.6-1.4-1.5-1.5c-1.1-0.1-1.5,0.8-1.5,1.5
			C78.9-110.9,79.2-109.9,80.4-110.1z"/>
		<path class="st5" d="M65.9-110.2c1,0,1.5-0.5,1.6-1.4c-0.1-0.9-0.6-1.4-1.5-1.5c-1.1-0.1-1.4,0.7-1.6,1.4
			C64.2-110.9,65.1-110.2,65.9-110.2z"/>
		<path class="st5" d="M51.2-110.1c1.3-0.1,1.9-0.6,1.8-1.5c0-1-0.6-1.4-1.6-1.4c-0.8,0-1.7,0.8-1.5,1.5
			C50.2-110.9,50.4-109.9,51.2-110.1z"/>
		<path class="st5" d="M158-118.8c-0.2,0.7,0.7,1.5,1.5,1.5c1,0,1.5-0.5,1.6-1.4c-0.1-0.9-0.6-1.4-1.5-1.5
			C158.4-120.4,158.2-119.5,158-118.8z"/>
		<path class="st5" d="M144.9-117.3c1.2-0.1,1.8-0.5,1.8-1.5c0-1-0.6-1.4-1.5-1.5c-1.1-0.1-1.5,0.8-1.5,1.5
			C143.7-118.1,144-117.1,144.9-117.3z"/>
		<path class="st5" d="M130.7-117.3c1-0.1,1.4-0.5,1.6-1.5c-0.1-0.9-0.6-1.4-1.6-1.5c-1.1-0.1-1.5,0.8-1.5,1.5
			C129.3-118.1,129.6-117.3,130.7-117.3z"/>
		<path class="st5" d="M116.4-117.3c0.9-0.1,1.5-0.5,1.5-1.4c0-1-0.6-1.4-1.5-1.5c-1.1-0.1-1.5,0.8-1.5,1.5
			C114.9-118.1,115.2-117.1,116.4-117.3z"/>
		<path class="st5" d="M101.9-117.3c1,0,1.5-0.5,1.6-1.2c0-1.1-0.6-1.6-1.5-1.7c-1.1-0.1-1.4,0.7-1.6,1.4
			C100.2-118.1,101.1-117.4,101.9-117.3z"/>
		<path class="st5" d="M87.3-117.3c1,0,1.7-0.5,1.8-1.4c0.1-0.9-0.6-1.4-1.5-1.6c-1.1-0.1-1.5,0.6-1.6,1.4
			C86-118.3,86.3-117.4,87.3-117.3z"/>
		<path class="st5" d="M73.1-120.2c-1.1-0.1-1.5,0.8-1.5,1.5c0,0.7,0.4,1.5,1.5,1.4c1-0.1,1.4-0.6,1.6-1.5
			C74.6-119.7,74.1-120.2,73.1-120.2z"/>
		<path class="st5" d="M109.2-124.5c0.9-0.1,1.5-0.6,1.5-1.5c0-1-0.6-1.4-1.6-1.4c-0.8,0-1.7,0.8-1.5,1.5
			C107.8-125.2,108.1-124.4,109.2-124.5z"/>
		<path class="st5" d="M138-124.5c0.9-0.1,1.5-0.5,1.5-1.5c0-1-0.6-1.4-1.6-1.4c-0.8,0-1.7,0.8-1.5,1.5
			C136.6-125.3,136.8-124.4,138-124.5z"/>
		<path class="st5" d="M58.8-48.2c-1-0.1-1.4,0.4-1.4,1.2c0,1,0.2,1.7,1.3,1.7c1,0,1.5-0.5,1.6-1.4C60.3-47.7,59.7-48.2,58.8-48.2z"
			/>
		<path class="st5" d="M58.7-62.6c-1,0-1.3,0.5-1.3,1.1c0,1.1,0.2,1.8,1.2,1.8c1,0,1.7-0.6,1.6-1.5C60.2-62.2,59.7-62.6,58.7-62.6z"
			/>
		<path class="st5" d="M58.7-146.1c1,0,1.7-0.6,1.6-1.5c-0.1-1-0.6-1.4-1.6-1.4c-1,0-1.3,0.5-1.3,1.3
			C57.4-146.8,57.6-146.1,58.7-146.1z"/>
		<path class="st5" d="M58.7-74.1c1,0,1.5-0.4,1.6-1.4c0.1-0.9-0.6-1.5-1.6-1.5c-1,0-1.3,0.6-1.3,1.6C57.4-74.7,57.7-74.1,58.7-74.1
			z"/>
		<path class="st5" d="M58.7-88.5c1,0,1.7-0.6,1.6-1.5c-0.1-1-0.6-1.4-1.6-1.4c-1,0-1.3,0.6-1.3,1.3C57.4-89.2,57.6-88.5,58.7-88.5z
			"/>
		<path class="st5" d="M58.7-105.8c-1,0-1.3,0.6-1.3,1.6c0,0.8,0.3,1.3,1.3,1.3c1,0,1.5-0.4,1.6-1.4
			C60.3-105.2,59.7-105.8,58.7-105.8z"/>
		<path class="st5" d="M58.7-117.4c1,0,1.7-0.6,1.6-1.5c-0.1-1-0.6-1.4-1.6-1.4c-1,0-1.3,0.6-1.3,1.3
			C57.4-117.8,57.7-117.4,58.7-117.4z"/>
		<path class="st5" d="M58.7-131.7c1,0,1.5-0.4,1.6-1.4c0.1-0.9-0.6-1.5-1.6-1.5c-1,0-1.3,0.6-1.3,1.5
			C57.4-132.3,57.7-131.7,58.7-131.7z"/>
		<path class="st5" d="M51.6-69.8c-0.9,0-1.4,0.2-1.3,1.2c0,0.8,0,1.7,1.2,1.7c1,0,1.5-0.4,1.6-1.4C53.1-69.3,52.5-69.8,51.6-69.8z"
			/>
		<path class="st5" d="M123.3-81.4c0.7,0,1.8-0.8,1.8-1.4c0-0.8-0.6-1.4-1.4-1.5c-0.9-0.1-1.8,0.6-1.7,1.4
			C122.1-82.2,122.3-81.4,123.3-81.4z"/>
		<path class="st5" d="M122.2-126c0,0.8,0.2,1.5,1.3,1.4c0.9,0,1.5-0.5,1.6-1.4c0-1-0.5-1.4-1.5-1.5
			C122.6-127.5,122.2-126.8,122.2-126z"/>
		<path class="st6" d="M65.8-153.3c1.1,0,1.6-0.4,1.7-1.3c0.1-0.6-1.3-1.5-2.1-1.4c-0.8,0.1-1,0.9-0.9,1.3
			C64.6-154.1,64.8-153.1,65.8-153.3z"/>
	</g>
</pattern>
<pattern  id="SVGID_1_" xlink:href="#New_Pattern_Swatch_4" patternTransform="matrix(1 0 0 1 140 50)">
</pattern>
<rect x="-26" y="-18.1" class="st7" width="1123.2" height="943.7"/>
</svg>
